<svg width="1171" height="310" viewBox="0 0 1171 310" fill="none" xmlns="http://www.w3.org/2000/svg">
<path d="M213.629 1H119L213.629 155L119 309H213.629L303 155L213.629 1Z" fill="url(#paint0_linear_3066_2486)" stroke="#B3CFEC"/>
<path d="M95.6286 1H1L95.6286 155L1 309H95.6286L185 155L95.6286 1Z" fill="url(#paint1_linear_3066_2486)" stroke="#B3CFEC"/>
<path d="M1080.63 1H986L1080.63 155L986 309H1080.63L1170 155L1080.63 1Z" fill="url(#paint2_linear_3066_2486)" stroke="#D5C4F9"/>
<path d="M962.629 1H868L962.629 155L868 309H962.629L1052 155L962.629 1Z" fill="url(#paint3_linear_3066_2486)" stroke="#D5C4F9"/>
<defs>
<linearGradient id="paint0_linear_3066_2486" x1="211" y1="-156" x2="211" y2="442" gradientUnits="userSpaceOnUse">
<stop offset="0.19281" stop-color="white"/>
<stop offset="1" stop-color="#CADDF2"/>
</linearGradient>
<linearGradient id="paint1_linear_3066_2486" x1="93" y1="-156" x2="93" y2="442" gradientUnits="userSpaceOnUse">
<stop offset="0.19281" stop-color="white"/>
<stop offset="1" stop-color="#CADDF2"/>
</linearGradient>
<linearGradient id="paint2_linear_3066_2486" x1="1078" y1="-156" x2="1078" y2="442" gradientUnits="userSpaceOnUse">
<stop offset="0.19281" stop-color="white"/>
<stop offset="1" stop-color="#E1D6FB"/>
</linearGradient>
<linearGradient id="paint3_linear_3066_2486" x1="960" y1="-156" x2="960" y2="442" gradientUnits="userSpaceOnUse">
<stop offset="0.19281" stop-color="white"/>
<stop offset="1" stop-color="#E1D6FB"/>
</linearGradient>
</defs>
</svg>
