<svg width="1348" height="952" viewBox="0 0 1348 952" fill="none" xmlns="http://www.w3.org/2000/svg">
<rect x="60.749" y="64.5" width="176.393" height="176.393" fill="#F4F4F4"/>
<rect x="60.749" y="64.5" width="176.393" height="176.393" stroke="#EEEFF0"/>
<rect x="60.749" y="64.5" width="176.393" height="176.393" stroke="#EEEFF0"/>
<rect x="60.748" y="-109.5" width="176.393" height="176.393" fill="#F4F4F4"/>
<rect x="60.748" y="-109.5" width="176.393" height="176.393" stroke="#EEEFF0"/>
<rect x="60.748" y="-109.5" width="176.393" height="176.393" stroke="#EEEFF0"/>
<rect x="60.749" y="239.893" width="176.393" height="176.393" fill="#F4F4F4"/>
<rect x="60.749" y="239.893" width="176.393" height="176.393" stroke="#EEEFF0"/>
<rect x="60.749" y="239.893" width="176.393" height="176.393" stroke="#EEEFF0"/>
<rect x="60.749" y="415.286" width="176.393" height="176.393" fill="#F4F4F4"/>
<rect x="60.749" y="415.286" width="176.393" height="176.393" stroke="#EEEFF0"/>
<rect x="60.749" y="415.286" width="176.393" height="176.393" stroke="#EEEFF0"/>
<rect x="60.749" y="590.679" width="176.393" height="176.393" fill="#F4F4F4"/>
<rect x="60.749" y="590.679" width="176.393" height="176.393" stroke="#EEEFF0"/>
<rect x="60.749" y="590.679" width="176.393" height="176.393" stroke="#EEEFF0"/>
<rect x="60.749" y="766.072" width="176.393" height="176.393" fill="#FCFCFC"/>
<rect x="60.749" y="766.072" width="176.393" height="176.393" stroke="#EEEFF0"/>
<rect x="60.749" y="766.072" width="176.393" height="176.393" stroke="#EEEFF0"/>
<rect x="236.142" y="64.5" width="176.393" height="176.393" fill="#FAFAFA"/>
<rect x="236.142" y="64.5" width="176.393" height="176.393" stroke="#EEEFF0"/>
<rect x="236.142" y="64.5" width="176.393" height="176.393" stroke="#EEEFF0"/>
<rect x="236.143" y="-109.5" width="176.393" height="176.393" fill="#F4F4F4"/>
<rect x="236.143" y="-109.5" width="176.393" height="176.393" stroke="#EEEFF0"/>
<rect x="236.143" y="-109.5" width="176.393" height="176.393" stroke="#EEEFF0"/>
<rect x="236.142" y="239.893" width="176.393" height="176.393" fill="#F4F4F4"/>
<rect x="236.142" y="239.893" width="176.393" height="176.393" stroke="#EEEFF0"/>
<rect x="236.142" y="239.893" width="176.393" height="176.393" stroke="#EEEFF0"/>
<rect x="236.142" y="415.286" width="176.393" height="176.393" fill="#F7F7F7"/>
<rect x="236.142" y="415.286" width="176.393" height="176.393" stroke="#EEEFF0"/>
<rect x="236.142" y="415.286" width="176.393" height="176.393" stroke="#EEEFF0"/>
<rect x="236.142" y="590.679" width="176.393" height="176.393" fill="#F4F4F4"/>
<rect x="236.142" y="590.679" width="176.393" height="176.393" stroke="#EEEFF0"/>
<rect x="236.142" y="590.679" width="176.393" height="176.393" stroke="#EEEFF0"/>
<rect x="236.142" y="766.072" width="176.393" height="176.393" fill="#F4F4F4"/>
<rect x="236.142" y="766.072" width="176.393" height="176.393" stroke="#EEEFF0"/>
<rect x="236.142" y="766.072" width="176.393" height="176.393" stroke="#EEEFF0"/>
<rect x="411.535" y="64.5" width="176.393" height="176.393" fill="#F4F4F4"/>
<rect x="411.535" y="64.5" width="176.393" height="176.393" stroke="#EEEFF0"/>
<rect x="411.535" y="64.5" width="176.393" height="176.393" stroke="#EEEFF0"/>
<rect x="411.535" y="-109.5" width="176.393" height="176.393" fill="#FAFAFA"/>
<rect x="411.535" y="-109.5" width="176.393" height="176.393" stroke="#EEEFF0"/>
<rect x="411.535" y="-109.5" width="176.393" height="176.393" stroke="#EEEFF0"/>
<rect x="411.535" y="239.893" width="176.393" height="176.393" fill="#F4F4F4"/>
<rect x="411.535" y="239.893" width="176.393" height="176.393" stroke="#EEEFF0"/>
<rect x="411.535" y="239.893" width="176.393" height="176.393" stroke="#EEEFF0"/>
<rect x="411.535" y="415.286" width="176.393" height="176.393" fill="#F4F4F4"/>
<rect x="411.535" y="415.286" width="176.393" height="176.393" stroke="#EEEFF0"/>
<rect x="411.535" y="415.286" width="176.393" height="176.393" stroke="#EEEFF0"/>
<rect x="411.535" y="590.679" width="176.393" height="176.393" fill="#F4F4F4"/>
<rect x="411.535" y="590.679" width="176.393" height="176.393" stroke="#EEEFF0"/>
<rect x="411.535" y="590.679" width="176.393" height="176.393" stroke="#EEEFF0"/>
<rect x="411.535" y="766.072" width="176.393" height="176.393" fill="#FAFAFA"/>
<rect x="411.535" y="766.072" width="176.393" height="176.393" stroke="#EEEFF0"/>
<rect x="411.535" y="766.072" width="176.393" height="176.393" stroke="#EEEFF0"/>
<rect x="586.928" y="64.5" width="176.393" height="176.393" fill="#F7F7F7"/>
<rect x="586.928" y="64.5" width="176.393" height="176.393" stroke="#EEEFF0"/>
<rect x="586.928" y="64.5" width="176.393" height="176.393" stroke="#EEEFF0"/>
<rect x="586.928" y="-109.5" width="176.393" height="176.393" fill="#F7F7F7"/>
<rect x="586.928" y="-109.5" width="176.393" height="176.393" stroke="#EEEFF0"/>
<rect x="586.928" y="-109.5" width="176.393" height="176.393" stroke="#EEEFF0"/>
<rect x="586.928" y="239.893" width="176.393" height="176.393" fill="#FAFAFA"/>
<rect x="586.928" y="239.893" width="176.393" height="176.393" stroke="#EEEFF0"/>
<rect x="586.928" y="239.893" width="176.393" height="176.393" stroke="#EEEFF0"/>
<rect x="586.928" y="415.286" width="176.393" height="176.393" fill="#F4F4F4"/>
<rect x="586.928" y="415.286" width="176.393" height="176.393" stroke="#EEEFF0"/>
<rect x="586.928" y="415.286" width="176.393" height="176.393" stroke="#EEEFF0"/>
<rect x="586.928" y="590.679" width="176.393" height="176.393" fill="#F7F7F7"/>
<rect x="586.928" y="590.679" width="176.393" height="176.393" stroke="#EEEFF0"/>
<rect x="586.928" y="590.679" width="176.393" height="176.393" stroke="#EEEFF0"/>
<rect x="586.928" y="766.072" width="176.393" height="176.393" fill="#F4F4F4"/>
<rect x="586.928" y="766.072" width="176.393" height="176.393" stroke="#EEEFF0"/>
<rect x="586.928" y="766.072" width="176.393" height="176.393" stroke="#EEEFF0"/>
<rect x="762.321" y="64.5" width="176.393" height="176.393" fill="#FCFCFC"/>
<rect x="762.321" y="64.5" width="176.393" height="176.393" stroke="#EEEFF0"/>
<rect x="762.321" y="64.5" width="176.393" height="176.393" stroke="#EEEFF0"/>
<rect x="762.321" y="-109.5" width="176.393" height="176.393" fill="#F4F4F4"/>
<rect x="762.321" y="-109.5" width="176.393" height="176.393" stroke="#EEEFF0"/>
<rect x="762.321" y="-109.5" width="176.393" height="176.393" stroke="#EEEFF0"/>
<rect x="762.321" y="239.893" width="176.393" height="176.393" fill="#F4F4F4"/>
<rect x="762.321" y="239.893" width="176.393" height="176.393" stroke="#EEEFF0"/>
<rect x="762.321" y="239.893" width="176.393" height="176.393" stroke="#EEEFF0"/>
<rect x="762.321" y="415.286" width="176.393" height="176.393" fill="#F4F4F4"/>
<rect x="762.321" y="415.286" width="176.393" height="176.393" stroke="#EEEFF0"/>
<rect x="762.321" y="415.286" width="176.393" height="176.393" stroke="#EEEFF0"/>
<rect x="762.321" y="590.679" width="176.393" height="176.393" fill="#F4F4F4"/>
<rect x="762.321" y="590.679" width="176.393" height="176.393" stroke="#EEEFF0"/>
<rect x="762.321" y="590.679" width="176.393" height="176.393" stroke="#EEEFF0"/>
<rect x="762.321" y="766.072" width="176.393" height="176.393" fill="#F4F4F4"/>
<rect x="762.321" y="766.072" width="176.393" height="176.393" stroke="#EEEFF0"/>
<rect x="762.321" y="766.072" width="176.393" height="176.393" stroke="#EEEFF0"/>
<rect x="937.714" y="64.5" width="176.393" height="176.393" fill="#F4F4F4"/>
<rect x="937.714" y="64.5" width="176.393" height="176.393" stroke="#EEEFF0"/>
<rect x="937.714" y="64.5" width="176.393" height="176.393" stroke="#EEEFF0"/>
<rect x="937.714" y="-109.5" width="176.393" height="176.393" fill="#F4F4F4"/>
<rect x="937.714" y="-109.5" width="176.393" height="176.393" stroke="#EEEFF0"/>
<rect x="937.714" y="-109.5" width="176.393" height="176.393" stroke="#EEEFF0"/>
<rect x="937.714" y="239.893" width="176.393" height="176.393" fill="#F7F7F7"/>
<rect x="937.714" y="239.893" width="176.393" height="176.393" stroke="#EEEFF0"/>
<rect x="937.714" y="239.893" width="176.393" height="176.393" stroke="#EEEFF0"/>
<rect x="937.714" y="415.286" width="176.393" height="176.393" fill="#F4F4F4"/>
<rect x="937.714" y="415.286" width="176.393" height="176.393" stroke="#EEEFF0"/>
<rect x="937.714" y="415.286" width="176.393" height="176.393" stroke="#EEEFF0"/>
<rect x="937.714" y="590.679" width="176.393" height="176.393" fill="#F4F4F4"/>
<rect x="937.714" y="590.679" width="176.393" height="176.393" stroke="#EEEFF0"/>
<rect x="937.714" y="590.679" width="176.393" height="176.393" stroke="#EEEFF0"/>
<rect x="937.714" y="766.072" width="176.393" height="176.393" fill="#FAFAFA"/>
<rect x="937.714" y="766.072" width="176.393" height="176.393" stroke="#EEEFF0"/>
<rect x="937.714" y="766.072" width="176.393" height="176.393" stroke="#EEEFF0"/>
<rect x="1113.11" y="64.5" width="176.393" height="176.393" fill="#F4F4F4"/>
<rect x="1113.11" y="64.5" width="176.393" height="176.393" stroke="#EEEFF0"/>
<rect x="1113.11" y="64.5" width="176.393" height="176.393" stroke="#EEEFF0"/>
<rect x="1113.11" y="-109.5" width="176.393" height="176.393" fill="#F4F4F4"/>
<rect x="1113.11" y="-109.5" width="176.393" height="176.393" stroke="#EEEFF0"/>
<rect x="1113.11" y="-109.5" width="176.393" height="176.393" stroke="#EEEFF0"/>
<rect x="1113.11" y="239.893" width="176.393" height="176.393" fill="#F4F4F4"/>
<rect x="1113.11" y="239.893" width="176.393" height="176.393" stroke="#EEEFF0"/>
<rect x="1113.11" y="239.893" width="176.393" height="176.393" stroke="#EEEFF0"/>
<rect x="1113.11" y="415.286" width="176.393" height="176.393" fill="#FAFAFA"/>
<rect x="1113.11" y="415.286" width="176.393" height="176.393" stroke="#EEEFF0"/>
<rect x="1113.11" y="415.286" width="176.393" height="176.393" stroke="#EEEFF0"/>
<rect x="1113.11" y="590.679" width="176.393" height="176.393" fill="#F4F4F4"/>
<rect x="1113.11" y="590.679" width="176.393" height="176.393" stroke="#EEEFF0"/>
<rect x="1113.11" y="590.679" width="176.393" height="176.393" stroke="#EEEFF0"/>
<rect x="1113.11" y="766.072" width="176.393" height="176.393" fill="#F7F7F7"/>
<rect x="1113.11" y="766.072" width="176.393" height="176.393" stroke="#EEEFF0"/>
<rect x="1113.11" y="766.072" width="176.393" height="176.393" stroke="#EEEFF0"/>
<rect y="-15" width="1348" height="967" fill="url(#paint0_linear_3066_2592)"/>
<defs>
<linearGradient id="paint0_linear_3066_2592" x1="-120.753" y1="433.581" x2="1459.24" y2="433.581" gradientUnits="userSpaceOnUse">
<stop stop-color="#F9F9F9"/>
<stop offset="0.309046" stop-color="#F9F9F9" stop-opacity="0"/>
<stop offset="0.64241" stop-color="#F9F9F9" stop-opacity="0"/>
<stop offset="1" stop-color="#F7F7F7"/>
</linearGradient>
</defs>
</svg>
