<svg width="897" height="648" viewBox="0 0 897 648" fill="none" xmlns="http://www.w3.org/2000/svg">
<path d="M333.967 1H135.493L333.967 324L135.493 647H333.967L521.415 324L333.967 1Z" fill="#FF9401" fill-opacity="0.3" stroke="#FF9401"/>
<path d="M86.4732 1H-112.001L86.4732 324L-112.001 647H86.4732L273.921 324L86.4732 1Z" fill="#FF9401" fill-opacity="0.3" stroke="#FF9401"/>
<mask id="path-3-outside-1_3497_2545" maskUnits="userSpaceOnUse" x="181" y="264" width="711" height="154" fill="black">
<rect fill="white" x="181" y="264" width="711" height="154"/>
<path d="M253 416.4C210.4 416.4 182.8 386.8 182.8 341C182.8 295.6 211.4 265.4 254.2 265.4C288.8 265.4 314.6 285.6 319.6 317H292.6C287.6 300 273 290 253.6 290C226.6 290 209.6 309.6 209.6 340.8C209.6 371.8 226.8 391.8 253.6 391.8C273.4 391.8 288.6 381.4 293.4 365.2H320C314.4 396 287.6 416.4 253 416.4ZM398.758 416.4C356.158 416.4 328.558 386.8 328.558 341C328.558 295.6 357.158 265.4 399.958 265.4C434.558 265.4 460.358 285.6 465.358 317H438.358C433.358 300 418.758 290 399.358 290C372.358 290 355.358 309.6 355.358 340.8C355.358 371.8 372.558 391.8 399.358 391.8C419.158 391.8 434.358 381.4 439.158 365.2H465.758C460.158 396 433.358 416.4 398.758 416.4ZM461.908 291.4V267.8H573.108V291.4H530.308V414H504.708V291.4H461.908ZM644.477 363.6H612.277V414H586.677V267.8H644.477C673.877 267.8 692.877 287 692.877 315.6C692.877 343.8 673.677 363.6 644.477 363.6ZM639.477 290.6H612.277V340.8H639.077C656.677 340.8 666.077 331.4 666.077 315.4C666.077 299.4 656.477 290.6 639.477 290.6ZM699.531 416.4C690.731 416.4 683.331 409.2 683.331 400.6C683.331 391.8 690.731 384.6 699.531 384.6C708.331 384.6 715.731 391.8 715.731 400.6C715.731 409.2 708.331 416.4 699.531 416.4ZM762.88 414H738.48V335.6H719.48V315.2H738.48V284.4H762.88V315.2H782.08V335.6H762.88V414ZM784.472 364.4C784.472 333.6 806.672 312.4 837.272 312.4C867.872 312.4 890.072 333.6 890.072 364.4C890.072 395.2 867.872 416.4 837.272 416.4C806.672 416.4 784.472 395.2 784.472 364.4ZM808.872 364.4C808.872 382.4 820.472 394.6 837.272 394.6C854.072 394.6 865.672 382.4 865.672 364.4C865.672 346.4 854.072 334.2 837.272 334.2C820.472 334.2 808.872 346.4 808.872 364.4Z"/>
</mask>
<path d="M253 416.4C210.4 416.4 182.8 386.8 182.8 341C182.8 295.6 211.4 265.4 254.2 265.4C288.8 265.4 314.6 285.6 319.6 317H292.6C287.6 300 273 290 253.6 290C226.6 290 209.6 309.6 209.6 340.8C209.6 371.8 226.8 391.8 253.6 391.8C273.4 391.8 288.6 381.4 293.4 365.2H320C314.4 396 287.6 416.4 253 416.4ZM398.758 416.4C356.158 416.4 328.558 386.8 328.558 341C328.558 295.6 357.158 265.4 399.958 265.4C434.558 265.4 460.358 285.6 465.358 317H438.358C433.358 300 418.758 290 399.358 290C372.358 290 355.358 309.6 355.358 340.8C355.358 371.8 372.558 391.8 399.358 391.8C419.158 391.8 434.358 381.4 439.158 365.2H465.758C460.158 396 433.358 416.4 398.758 416.4ZM461.908 291.4V267.8H573.108V291.4H530.308V414H504.708V291.4H461.908ZM644.477 363.6H612.277V414H586.677V267.8H644.477C673.877 267.8 692.877 287 692.877 315.6C692.877 343.8 673.677 363.6 644.477 363.6ZM639.477 290.6H612.277V340.8H639.077C656.677 340.8 666.077 331.4 666.077 315.4C666.077 299.4 656.477 290.6 639.477 290.6ZM699.531 416.4C690.731 416.4 683.331 409.2 683.331 400.6C683.331 391.8 690.731 384.6 699.531 384.6C708.331 384.6 715.731 391.8 715.731 400.6C715.731 409.2 708.331 416.4 699.531 416.4ZM762.88 414H738.48V335.6H719.48V315.2H738.48V284.4H762.88V315.2H782.08V335.6H762.88V414ZM784.472 364.4C784.472 333.6 806.672 312.4 837.272 312.4C867.872 312.4 890.072 333.6 890.072 364.4C890.072 395.2 867.872 416.4 837.272 416.4C806.672 416.4 784.472 395.2 784.472 364.4ZM808.872 364.4C808.872 382.4 820.472 394.6 837.272 394.6C854.072 394.6 865.672 382.4 865.672 364.4C865.672 346.4 854.072 334.2 837.272 334.2C820.472 334.2 808.872 346.4 808.872 364.4Z" fill="#FF9401"/>
<path d="M319.6 317V318H320.772L320.588 316.843L319.6 317ZM292.6 317L291.641 317.282L291.852 318H292.6V317ZM293.4 365.2V364.2H292.653L292.441 364.916L293.4 365.2ZM320 365.2L320.984 365.379L321.198 364.2H320V365.2ZM253 416.4V415.4C231.942 415.4 214.669 408.091 202.657 395.193C190.637 382.289 183.8 363.7 183.8 341H182.8H181.8C181.8 364.1 188.763 383.211 201.193 396.557C213.631 409.909 231.458 417.4 253 417.4V416.4ZM182.8 341H183.8C183.8 318.511 190.881 299.871 203.177 286.862C215.468 273.858 233.045 266.4 254.2 266.4V265.4V264.4C232.555 264.4 214.432 272.042 201.723 285.488C189.019 298.929 181.8 318.089 181.8 341H182.8ZM254.2 265.4V266.4C288.379 266.4 313.7 286.309 318.612 317.157L319.6 317L320.588 316.843C315.5 284.89 289.221 264.4 254.2 264.4V265.4ZM319.6 317V316H292.6V317V318H319.6V317ZM292.6 317L293.559 316.718C288.417 299.233 273.378 289 253.6 289V290V291C272.622 291 286.783 300.767 291.641 317.282L292.6 317ZM253.6 290V289C239.842 289 228.554 294.003 220.719 303.045C212.898 312.071 208.6 325.025 208.6 340.8H209.6H210.6C210.6 325.375 214.802 312.929 222.231 304.355C229.646 295.797 240.358 291 253.6 291V290ZM209.6 340.8H208.6C208.6 356.479 212.95 369.48 220.793 378.578C228.648 387.691 239.934 392.8 253.6 392.8V391.8V390.8C240.466 390.8 229.752 385.909 222.307 377.272C214.85 368.62 210.6 356.121 210.6 340.8H209.6ZM253.6 391.8V392.8C273.758 392.8 289.411 382.185 294.359 365.484L293.4 365.2L292.441 364.916C287.789 380.615 273.042 390.8 253.6 390.8V391.8ZM293.4 365.2V366.2H320V365.2V364.2H293.4V365.2ZM320 365.2L319.016 365.021C313.516 395.273 287.194 415.4 253 415.4V416.4V417.4C288.006 417.4 315.284 396.727 320.984 365.379L320 365.2ZM465.358 317V318H466.53L466.345 316.843L465.358 317ZM438.358 317L437.398 317.282L437.61 318H438.358V317ZM439.158 365.2V364.2H438.411L438.199 364.916L439.158 365.2ZM465.758 365.2L466.742 365.379L466.956 364.2H465.758V365.2ZM398.758 416.4V415.4C377.7 415.4 360.427 408.091 348.415 395.193C336.395 382.289 329.558 363.7 329.558 341H328.558H327.558C327.558 364.1 334.52 383.211 346.951 396.557C359.388 409.909 377.216 417.4 398.758 417.4V416.4ZM328.558 341H329.558C329.558 318.511 336.638 299.871 348.935 286.862C361.226 273.858 378.803 266.4 399.958 266.4V265.4V264.4C378.313 264.4 360.19 272.042 347.481 285.488C334.777 298.929 327.558 318.089 327.558 341H328.558ZM399.958 265.4V266.4C434.137 266.4 459.458 286.309 464.37 317.157L465.358 317L466.345 316.843C461.257 284.89 434.979 264.4 399.958 264.4V265.4ZM465.358 317V316H438.358V317V318H465.358V317ZM438.358 317L439.317 316.718C434.175 299.233 419.136 289 399.358 289V290V291C418.379 291 432.541 300.767 437.398 317.282L438.358 317ZM399.358 290V289C385.6 289 374.312 294.003 366.477 303.045C358.656 312.071 354.358 325.025 354.358 340.8H355.358H356.358C356.358 325.375 360.56 312.929 367.989 304.355C375.404 295.797 386.116 291 399.358 291V290ZM355.358 340.8H354.358C354.358 356.479 358.708 369.48 366.55 378.578C374.406 387.691 385.691 392.8 399.358 392.8V391.8V390.8C386.224 390.8 375.51 385.909 368.065 377.272C360.607 368.62 356.358 356.121 356.358 340.8H355.358ZM399.358 391.8V392.8C419.516 392.8 435.168 382.185 440.117 365.484L439.158 365.2L438.199 364.916C433.547 380.615 418.799 390.8 399.358 390.8V391.8ZM439.158 365.2V366.2H465.758V365.2V364.2H439.158V365.2ZM465.758 365.2L464.774 365.021C459.274 395.273 432.952 415.4 398.758 415.4V416.4V417.4C433.764 417.4 461.042 396.727 466.742 365.379L465.758 365.2ZM461.908 291.4H460.908V292.4H461.908V291.4ZM461.908 267.8V266.8H460.908V267.8H461.908ZM573.108 267.8H574.108V266.8H573.108V267.8ZM573.108 291.4V292.4H574.108V291.4H573.108ZM530.308 291.4V290.4H529.308V291.4H530.308ZM530.308 414V415H531.308V414H530.308ZM504.708 414H503.708V415H504.708V414ZM504.708 291.4H505.708V290.4H504.708V291.4ZM461.908 291.4H462.908V267.8H461.908H460.908V291.4H461.908ZM461.908 267.8V268.8H573.108V267.8V266.8H461.908V267.8ZM573.108 267.8H572.108V291.4H573.108H574.108V267.8H573.108ZM573.108 291.4V290.4H530.308V291.4V292.4H573.108V291.4ZM530.308 291.4H529.308V414H530.308H531.308V291.4H530.308ZM530.308 414V413H504.708V414V415H530.308V414ZM504.708 414H505.708V291.4H504.708H503.708V414H504.708ZM504.708 291.4V290.4H461.908V291.4V292.4H504.708V291.4ZM612.277 363.6V362.6H611.277V363.6H612.277ZM612.277 414V415H613.277V414H612.277ZM586.677 414H585.677V415H586.677V414ZM586.677 267.8V266.8H585.677V267.8H586.677ZM612.277 290.6V289.6H611.277V290.6H612.277ZM612.277 340.8H611.277V341.8H612.277V340.8ZM644.477 363.6V362.6H612.277V363.6V364.6H644.477V363.6ZM612.277 363.6H611.277V414H612.277H613.277V363.6H612.277ZM612.277 414V413H586.677V414V415H612.277V414ZM586.677 414H587.677V267.8H586.677H585.677V414H586.677ZM586.677 267.8V268.8H644.477V267.8V266.8H586.677V267.8ZM644.477 267.8V268.8C658.954 268.8 670.787 273.523 678.997 281.684C687.206 289.845 691.877 301.526 691.877 315.6H692.877H693.877C693.877 301.074 689.047 288.855 680.407 280.266C671.766 271.677 659.399 266.8 644.477 266.8V267.8ZM692.877 315.6H691.877C691.877 329.468 687.159 341.203 678.918 349.469C670.678 357.733 658.844 362.6 644.477 362.6V363.6V364.6C659.309 364.6 671.675 359.567 680.335 350.881C688.994 342.197 693.877 329.932 693.877 315.6H692.877ZM639.477 290.6V289.6H612.277V290.6V291.6H639.477V290.6ZM612.277 290.6H611.277V340.8H612.277H613.277V290.6H612.277ZM612.277 340.8V341.8H639.077V340.8V339.8H612.277V340.8ZM639.077 340.8V341.8C648.047 341.8 655.077 339.403 659.868 334.823C664.664 330.237 667.077 323.596 667.077 315.4H666.077H665.077C665.077 323.204 662.789 329.263 658.486 333.377C654.176 337.497 647.706 339.8 639.077 339.8V340.8ZM666.077 315.4H667.077C667.077 307.197 664.61 300.702 659.832 296.267C655.065 291.843 648.139 289.6 639.477 289.6V290.6V291.6C647.814 291.6 654.188 293.757 658.471 297.733C662.743 301.698 665.077 307.603 665.077 315.4H666.077ZM699.531 416.4V415.4C691.259 415.4 684.331 408.624 684.331 400.6H683.331H682.331C682.331 409.776 690.203 417.4 699.531 417.4V416.4ZM683.331 400.6H684.331C684.331 392.368 691.267 385.6 699.531 385.6V384.6V383.6C690.195 383.6 682.331 391.232 682.331 400.6H683.331ZM699.531 384.6V385.6C707.795 385.6 714.731 392.368 714.731 400.6H715.731H716.731C716.731 391.232 708.867 383.6 699.531 383.6V384.6ZM715.731 400.6H714.731C714.731 408.624 707.803 415.4 699.531 415.4V416.4V417.4C708.859 417.4 716.731 409.776 716.731 400.6H715.731ZM762.88 414V415H763.88V414H762.88ZM738.48 414H737.48V415H738.48V414ZM738.48 335.6H739.48V334.6H738.48V335.6ZM719.48 335.6H718.48V336.6H719.48V335.6ZM719.48 315.2V314.2H718.48V315.2H719.48ZM738.48 315.2V316.2H739.48V315.2H738.48ZM738.48 284.4V283.4H737.48V284.4H738.48ZM762.88 284.4H763.88V283.4H762.88V284.4ZM762.88 315.2H761.88V316.2H762.88V315.2ZM782.08 315.2H783.08V314.2H782.08V315.2ZM782.08 335.6V336.6H783.08V335.6H782.08ZM762.88 335.6V334.6H761.88V335.6H762.88ZM762.88 414V413H738.48V414V415H762.88V414ZM738.48 414H739.48V335.6H738.48H737.48V414H738.48ZM738.48 335.6V334.6H719.48V335.6V336.6H738.48V335.6ZM719.48 335.6H720.48V315.2H719.48H718.48V335.6H719.48ZM719.48 315.2V316.2H738.48V315.2V314.2H719.48V315.2ZM738.48 315.2H739.48V284.4H738.48H737.48V315.2H738.48ZM738.48 284.4V285.4H762.88V284.4V283.4H738.48V284.4ZM762.88 284.4H761.88V315.2H762.88H763.88V284.4H762.88ZM762.88 315.2V316.2H782.08V315.2V314.2H762.88V315.2ZM782.08 315.2H781.08V335.6H782.08H783.08V315.2H782.08ZM782.08 335.6V334.6H762.88V335.6V336.6H782.08V335.6ZM762.88 335.6H761.88V414H762.88H763.88V335.6H762.88ZM784.472 364.4H785.472C785.472 349.249 790.927 336.514 800.095 327.566C809.266 318.615 822.207 313.4 837.272 313.4V312.4V311.4C821.737 311.4 808.278 316.785 798.698 326.134C789.116 335.486 783.472 348.751 783.472 364.4H784.472ZM837.272 312.4V313.4C852.337 313.4 865.278 318.615 874.448 327.566C883.616 336.514 889.072 349.249 889.072 364.4H890.072H891.072C891.072 348.751 885.427 335.486 875.845 326.134C866.266 316.785 852.807 311.4 837.272 311.4V312.4ZM890.072 364.4H889.072C889.072 379.551 883.616 392.286 874.448 401.234C865.278 410.185 852.337 415.4 837.272 415.4V416.4V417.4C852.807 417.4 866.266 412.015 875.845 402.666C885.427 393.314 891.072 380.049 891.072 364.4H890.072ZM837.272 416.4V415.4C822.207 415.4 809.266 410.185 800.095 401.234C790.927 392.286 785.472 379.551 785.472 364.4H784.472H783.472C783.472 380.049 789.116 393.314 798.698 402.666C808.278 412.015 821.737 417.4 837.272 417.4V416.4ZM808.872 364.4H807.872C807.872 373.616 810.845 381.424 816.044 386.936C821.249 392.453 828.62 395.6 837.272 395.6V394.6V393.6C829.124 393.6 822.295 390.647 817.499 385.564C812.699 380.476 809.872 373.184 809.872 364.4H808.872ZM837.272 394.6V395.6C845.924 395.6 853.295 392.453 858.499 386.936C863.699 381.424 866.672 373.616 866.672 364.4H865.672H864.672C864.672 373.184 861.845 380.476 857.044 385.564C852.249 390.647 845.42 393.6 837.272 393.6V394.6ZM865.672 364.4H866.672C866.672 355.184 863.699 347.376 858.499 341.864C853.295 336.347 845.924 333.2 837.272 333.2V334.2V335.2C845.42 335.2 852.249 338.153 857.044 343.236C861.845 348.324 864.672 355.616 864.672 364.4H865.672ZM837.272 334.2V333.2C828.62 333.2 821.249 336.347 816.044 341.864C810.845 347.376 807.872 355.184 807.872 364.4H808.872H809.872C809.872 355.616 812.699 348.324 817.499 343.236C822.295 338.153 829.124 335.2 837.272 335.2V334.2Z" fill="#FBC67E" mask="url(#path-3-outside-1_3497_2545)"/>
</svg>
