<svg width="897" height="648" viewBox="0 0 897 648" fill="none" xmlns="http://www.w3.org/2000/svg">
<path d="M333.967 1H135.493L333.967 324L135.493 647H333.967L521.415 324L333.967 1Z" fill="url(#paint0_linear_3497_2545)" stroke="#B3CFEC"/>
<path d="M86.4732 1H-112.001L86.4732 324L-112.001 647H86.4732L273.921 324L86.4732 1Z" fill="url(#paint1_linear_3497_2545)" stroke="#B3CFEC"/>
<path d="M253 416.4C210.4 416.4 182.8 386.8 182.8 341C182.8 295.6 211.4 265.4 254.2 265.4C288.8 265.4 314.6 285.6 319.6 317H292.6C287.6 300 273 290 253.6 290C226.6 290 209.6 309.6 209.6 340.8C209.6 371.8 226.8 391.8 253.6 391.8C273.4 391.8 288.6 381.4 293.4 365.2H320C314.4 396 287.6 416.4 253 416.4ZM398.758 416.4C356.158 416.4 328.558 386.8 328.558 341C328.558 295.6 357.158 265.4 399.958 265.4C434.558 265.4 460.358 285.6 465.358 317H438.358C433.358 300 418.758 290 399.358 290C372.358 290 355.358 309.6 355.358 340.8C355.358 371.8 372.558 391.8 399.358 391.8C419.158 391.8 434.358 381.4 439.158 365.2H465.758C460.158 396 433.358 416.4 398.758 416.4ZM461.908 291.4V267.8H573.108V291.4H530.308V414H504.708V291.4H461.908ZM644.477 363.6H612.277V414H586.677V267.8H644.477C673.877 267.8 692.877 287 692.877 315.6C692.877 343.8 673.677 363.6 644.477 363.6ZM639.477 290.6H612.277V340.8H639.077C656.677 340.8 666.077 331.4 666.077 315.4C666.077 299.4 656.477 290.6 639.477 290.6ZM699.531 416.4C690.731 416.4 683.331 409.2 683.331 400.6C683.331 391.8 690.731 384.6 699.531 384.6C708.331 384.6 715.731 391.8 715.731 400.6C715.731 409.2 708.331 416.4 699.531 416.4ZM762.88 414H738.48V335.6H719.48V315.2H738.48V284.4H762.88V315.2H782.08V335.6H762.88V414ZM784.472 364.4C784.472 333.6 806.672 312.4 837.272 312.4C867.872 312.4 890.072 333.6 890.072 364.4C890.072 395.2 867.872 416.4 837.272 416.4C806.672 416.4 784.472 395.2 784.472 364.4ZM808.872 364.4C808.872 382.4 820.472 394.6 837.272 394.6C854.072 394.6 865.672 382.4 865.672 364.4C865.672 346.4 854.072 334.2 837.272 334.2C820.472 334.2 808.872 346.4 808.872 364.4Z" fill="#29233B"/>
<defs>
<linearGradient id="paint0_linear_3497_2545" x1="328.454" y1="-328.292" x2="328.454" y2="925.955" gradientUnits="userSpaceOnUse">
<stop offset="0.19281" stop-color="white"/>
<stop offset="1" stop-color="#CADDF2"/>
</linearGradient>
<linearGradient id="paint1_linear_3497_2545" x1="80.9601" y1="-328.292" x2="80.9601" y2="925.955" gradientUnits="userSpaceOnUse">
<stop offset="0.19281" stop-color="white"/>
<stop offset="1" stop-color="#CADDF2"/>
</linearGradient>
</defs>
</svg>
